<mxfile host="app.diagrams.net" modified="2022-03-17T13:52:54.224Z" agent="5.0 (Windows NT 10.0; Win64; x64) AppleWebKit/537.36 (KHTML, like Gecko) Chrome/99.0.4844.74 Safari/537.36" etag="ITiLWbw5nXyIYH8_CaSn" version="17.1.3" type="github">
  <diagram id="C5RBs43oDa-KdzZeNtuy" name="Page-1">
    <mxGraphModel dx="1970" dy="803" grid="1" gridSize="10" guides="1" tooltips="1" connect="1" arrows="1" fold="1" page="1" pageScale="1" pageWidth="827" pageHeight="1169" math="0" shadow="0">
      <root>
        <mxCell id="WIyWlLk6GJQsqaUBKTNV-0" />
        <mxCell id="WIyWlLk6GJQsqaUBKTNV-1" parent="WIyWlLk6GJQsqaUBKTNV-0" />
        <mxCell id="7LJGOjl4zrkCwYGaNUY1-1" value="&lt;font style=&quot;vertical-align: inherit&quot;&gt;&lt;font style=&quot;vertical-align: inherit&quot;&gt;INICIO&lt;/font&gt;&lt;/font&gt;" style="rounded=1;whiteSpace=wrap;html=1;" vertex="1" parent="WIyWlLk6GJQsqaUBKTNV-1">
          <mxGeometry x="980" y="40" width="120" height="60" as="geometry" />
        </mxCell>
        <mxCell id="7LJGOjl4zrkCwYGaNUY1-2" value="FIM" style="rounded=1;whiteSpace=wrap;html=1;" vertex="1" parent="WIyWlLk6GJQsqaUBKTNV-1">
          <mxGeometry x="980" y="120" width="120" height="60" as="geometry" />
        </mxCell>
        <mxCell id="7LJGOjl4zrkCwYGaNUY1-3" value="&lt;font style=&quot;vertical-align: inherit&quot;&gt;&lt;font style=&quot;vertical-align: inherit&quot;&gt;ENTRADA&lt;/font&gt;&lt;/font&gt;" style="shape=parallelogram;perimeter=parallelogramPerimeter;whiteSpace=wrap;html=1;fixedSize=1;" vertex="1" parent="WIyWlLk6GJQsqaUBKTNV-1">
          <mxGeometry x="980" y="200" width="120" height="60" as="geometry" />
        </mxCell>
        <mxCell id="7LJGOjl4zrkCwYGaNUY1-5" value="PROCESSAMENTO" style="rounded=0;whiteSpace=wrap;html=1;" vertex="1" parent="WIyWlLk6GJQsqaUBKTNV-1">
          <mxGeometry x="980" y="380" width="120" height="60" as="geometry" />
        </mxCell>
        <mxCell id="7LJGOjl4zrkCwYGaNUY1-6" value="DECISÃƒO" style="rhombus;whiteSpace=wrap;html=1;" vertex="1" parent="WIyWlLk6GJQsqaUBKTNV-1">
          <mxGeometry x="1000" y="470" width="80" height="80" as="geometry" />
        </mxCell>
        <mxCell id="7LJGOjl4zrkCwYGaNUY1-32" value="" style="edgeStyle=orthogonalEdgeStyle;rounded=0;orthogonalLoop=1;jettySize=auto;html=1;" edge="1" parent="WIyWlLk6GJQsqaUBKTNV-1" source="7LJGOjl4zrkCwYGaNUY1-15" target="7LJGOjl4zrkCwYGaNUY1-16">
          <mxGeometry relative="1" as="geometry" />
        </mxCell>
        <mxCell id="7LJGOjl4zrkCwYGaNUY1-15" value="INICIO" style="rounded=1;whiteSpace=wrap;html=1;" vertex="1" parent="WIyWlLk6GJQsqaUBKTNV-1">
          <mxGeometry y="40" width="120" height="60" as="geometry" />
        </mxCell>
        <mxCell id="7LJGOjl4zrkCwYGaNUY1-33" value="" style="edgeStyle=orthogonalEdgeStyle;rounded=0;orthogonalLoop=1;jettySize=auto;html=1;" edge="1" parent="WIyWlLk6GJQsqaUBKTNV-1" source="7LJGOjl4zrkCwYGaNUY1-16" target="7LJGOjl4zrkCwYGaNUY1-20">
          <mxGeometry relative="1" as="geometry" />
        </mxCell>
        <mxCell id="7LJGOjl4zrkCwYGaNUY1-16" value="&lt;font style=&quot;vertical-align: inherit&quot;&gt;&lt;font style=&quot;vertical-align: inherit&quot;&gt;X,Y&lt;/font&gt;&lt;/font&gt;" style="shape=parallelogram;perimeter=parallelogramPerimeter;whiteSpace=wrap;html=1;fixedSize=1;" vertex="1" parent="WIyWlLk6GJQsqaUBKTNV-1">
          <mxGeometry y="140" width="120" height="50" as="geometry" />
        </mxCell>
        <mxCell id="7LJGOjl4zrkCwYGaNUY1-28" value="" style="edgeStyle=orthogonalEdgeStyle;rounded=0;orthogonalLoop=1;jettySize=auto;html=1;" edge="1" parent="WIyWlLk6GJQsqaUBKTNV-1" source="7LJGOjl4zrkCwYGaNUY1-20" target="7LJGOjl4zrkCwYGaNUY1-21">
          <mxGeometry relative="1" as="geometry">
            <Array as="points">
              <mxPoint x="60" y="320" />
              <mxPoint x="60" y="320" />
            </Array>
          </mxGeometry>
        </mxCell>
        <mxCell id="7LJGOjl4zrkCwYGaNUY1-20" value="&lt;font style=&quot;vertical-align: inherit&quot;&gt;&lt;font style=&quot;vertical-align: inherit&quot;&gt;Z= X+Y&lt;/font&gt;&lt;/font&gt;" style="rounded=0;whiteSpace=wrap;html=1;" vertex="1" parent="WIyWlLk6GJQsqaUBKTNV-1">
          <mxGeometry y="230" width="120" height="60" as="geometry" />
        </mxCell>
        <mxCell id="7LJGOjl4zrkCwYGaNUY1-30" value="" style="edgeStyle=orthogonalEdgeStyle;rounded=0;orthogonalLoop=1;jettySize=auto;html=1;" edge="1" parent="WIyWlLk6GJQsqaUBKTNV-1" source="7LJGOjl4zrkCwYGaNUY1-21" target="7LJGOjl4zrkCwYGaNUY1-29">
          <mxGeometry relative="1" as="geometry" />
        </mxCell>
        <mxCell id="7LJGOjl4zrkCwYGaNUY1-21" value="&lt;font style=&quot;vertical-align: inherit&quot;&gt;&lt;font style=&quot;vertical-align: inherit&quot;&gt;Z&lt;/font&gt;&lt;/font&gt;" style="shape=document;whiteSpace=wrap;html=1;boundedLbl=1;" vertex="1" parent="WIyWlLk6GJQsqaUBKTNV-1">
          <mxGeometry y="340" width="120" height="80" as="geometry" />
        </mxCell>
        <mxCell id="7LJGOjl4zrkCwYGaNUY1-29" value="&lt;font style=&quot;vertical-align: inherit&quot;&gt;&lt;font style=&quot;vertical-align: inherit&quot;&gt;&lt;font style=&quot;vertical-align: inherit&quot;&gt;&lt;font style=&quot;vertical-align: inherit&quot;&gt;FM&amp;nbsp;&lt;/font&gt;&lt;/font&gt;&lt;br&gt;&lt;/font&gt;&lt;/font&gt;" style="rounded=1;whiteSpace=wrap;html=1;" vertex="1" parent="WIyWlLk6GJQsqaUBKTNV-1">
          <mxGeometry y="450" width="120" height="60" as="geometry" />
        </mxCell>
        <mxCell id="7LJGOjl4zrkCwYGaNUY1-73" style="edgeStyle=orthogonalEdgeStyle;rounded=0;orthogonalLoop=1;jettySize=auto;html=1;exitX=0.5;exitY=1;exitDx=0;exitDy=0;entryX=0.5;entryY=0;entryDx=0;entryDy=0;" edge="1" parent="WIyWlLk6GJQsqaUBKTNV-1" source="7LJGOjl4zrkCwYGaNUY1-37" target="7LJGOjl4zrkCwYGaNUY1-39">
          <mxGeometry relative="1" as="geometry" />
        </mxCell>
        <mxCell id="7LJGOjl4zrkCwYGaNUY1-37" value="INICIO" style="rounded=1;whiteSpace=wrap;html=1;" vertex="1" parent="WIyWlLk6GJQsqaUBKTNV-1">
          <mxGeometry x="400" y="40" width="120" height="60" as="geometry" />
        </mxCell>
        <mxCell id="7LJGOjl4zrkCwYGaNUY1-38" value="" style="edgeStyle=orthogonalEdgeStyle;rounded=0;orthogonalLoop=1;jettySize=auto;html=1;entryX=0.5;entryY=0;entryDx=0;entryDy=0;startArrow=none;" edge="1" parent="WIyWlLk6GJQsqaUBKTNV-1" source="7LJGOjl4zrkCwYGaNUY1-78" target="7LJGOjl4zrkCwYGaNUY1-47">
          <mxGeometry relative="1" as="geometry">
            <mxPoint x="460" y="250" as="targetPoint" />
          </mxGeometry>
        </mxCell>
        <mxCell id="7LJGOjl4zrkCwYGaNUY1-39" value="&lt;font style=&quot;vertical-align: inherit&quot;&gt;&lt;font style=&quot;vertical-align: inherit&quot;&gt;X,Y&lt;/font&gt;&lt;/font&gt;" style="shape=parallelogram;perimeter=parallelogramPerimeter;whiteSpace=wrap;html=1;fixedSize=1;" vertex="1" parent="WIyWlLk6GJQsqaUBKTNV-1">
          <mxGeometry x="400" y="140" width="120" height="50" as="geometry" />
        </mxCell>
        <mxCell id="7LJGOjl4zrkCwYGaNUY1-44" value="&lt;font style=&quot;vertical-align: inherit&quot;&gt;&lt;font style=&quot;vertical-align: inherit&quot;&gt;&lt;font style=&quot;vertical-align: inherit&quot;&gt;&lt;font style=&quot;vertical-align: inherit&quot;&gt;FM&amp;nbsp;&lt;/font&gt;&lt;/font&gt;&lt;br&gt;&lt;/font&gt;&lt;/font&gt;" style="rounded=1;whiteSpace=wrap;html=1;" vertex="1" parent="WIyWlLk6GJQsqaUBKTNV-1">
          <mxGeometry x="420" y="560" width="120" height="60" as="geometry" />
        </mxCell>
        <mxCell id="7LJGOjl4zrkCwYGaNUY1-53" value="&lt;font style=&quot;vertical-align: inherit&quot;&gt;&lt;font style=&quot;vertical-align: inherit&quot;&gt;FALSO&lt;/font&gt;&lt;/font&gt;" style="edgeStyle=orthogonalEdgeStyle;rounded=0;orthogonalLoop=1;jettySize=auto;html=1;entryX=0.5;entryY=0;entryDx=0;entryDy=0;" edge="1" parent="WIyWlLk6GJQsqaUBKTNV-1" target="7LJGOjl4zrkCwYGaNUY1-75">
          <mxGeometry relative="1" as="geometry">
            <mxPoint x="420" y="370" as="sourcePoint" />
            <mxPoint x="310" y="440" as="targetPoint" />
          </mxGeometry>
        </mxCell>
        <mxCell id="7LJGOjl4zrkCwYGaNUY1-71" value="&lt;font style=&quot;vertical-align: inherit&quot;&gt;&lt;font style=&quot;vertical-align: inherit&quot;&gt;VERDADEIRO&lt;/font&gt;&lt;/font&gt;" style="edgeStyle=orthogonalEdgeStyle;rounded=0;orthogonalLoop=1;jettySize=auto;html=1;exitX=1;exitY=0.5;exitDx=0;exitDy=0;entryX=0.5;entryY=0;entryDx=0;entryDy=0;" edge="1" parent="WIyWlLk6GJQsqaUBKTNV-1" target="7LJGOjl4zrkCwYGaNUY1-66">
          <mxGeometry relative="1" as="geometry">
            <mxPoint x="500" y="370" as="sourcePoint" />
          </mxGeometry>
        </mxCell>
        <mxCell id="7LJGOjl4zrkCwYGaNUY1-47" value="&lt;font style=&quot;vertical-align: inherit&quot;&gt;&lt;font style=&quot;vertical-align: inherit&quot;&gt;X&amp;gt;Y&lt;/font&gt;&lt;/font&gt;" style="rhombus;whiteSpace=wrap;html=1;" vertex="1" parent="WIyWlLk6GJQsqaUBKTNV-1">
          <mxGeometry x="420" y="330" width="80" height="80" as="geometry" />
        </mxCell>
        <mxCell id="7LJGOjl4zrkCwYGaNUY1-82" style="edgeStyle=orthogonalEdgeStyle;rounded=0;orthogonalLoop=1;jettySize=auto;html=1;exitX=1;exitY=0.75;exitDx=0;exitDy=0;entryX=0.5;entryY=0;entryDx=0;entryDy=0;" edge="1" parent="WIyWlLk6GJQsqaUBKTNV-1" source="7LJGOjl4zrkCwYGaNUY1-51" target="7LJGOjl4zrkCwYGaNUY1-81">
          <mxGeometry relative="1" as="geometry" />
        </mxCell>
        <mxCell id="7LJGOjl4zrkCwYGaNUY1-51" value="&lt;font style=&quot;vertical-align: inherit&quot;&gt;&lt;font style=&quot;vertical-align: inherit&quot;&gt;SAO IGUAIS&amp;nbsp;&lt;/font&gt;&lt;/font&gt;" style="shape=document;whiteSpace=wrap;html=1;boundedLbl=1;" vertex="1" parent="WIyWlLk6GJQsqaUBKTNV-1">
          <mxGeometry x="590" y="230" width="120" height="80" as="geometry" />
        </mxCell>
        <mxCell id="7LJGOjl4zrkCwYGaNUY1-69" value="" style="edgeStyle=orthogonalEdgeStyle;rounded=0;orthogonalLoop=1;jettySize=auto;html=1;" edge="1" parent="WIyWlLk6GJQsqaUBKTNV-1" target="7LJGOjl4zrkCwYGaNUY1-44">
          <mxGeometry relative="1" as="geometry">
            <mxPoint x="370" y="470" as="sourcePoint" />
          </mxGeometry>
        </mxCell>
        <mxCell id="7LJGOjl4zrkCwYGaNUY1-70" style="edgeStyle=orthogonalEdgeStyle;rounded=0;orthogonalLoop=1;jettySize=auto;html=1;exitX=0;exitY=0.75;exitDx=0;exitDy=0;entryX=1;entryY=0.5;entryDx=0;entryDy=0;" edge="1" parent="WIyWlLk6GJQsqaUBKTNV-1" source="7LJGOjl4zrkCwYGaNUY1-66" target="7LJGOjl4zrkCwYGaNUY1-44">
          <mxGeometry relative="1" as="geometry">
            <Array as="points">
              <mxPoint x="590" y="470" />
              <mxPoint x="565" y="470" />
              <mxPoint x="565" y="590" />
            </Array>
          </mxGeometry>
        </mxCell>
        <mxCell id="7LJGOjl4zrkCwYGaNUY1-66" value="&lt;font style=&quot;vertical-align: inherit&quot;&gt;&lt;font style=&quot;vertical-align: inherit&quot;&gt;X&lt;/font&gt;&lt;/font&gt;" style="shape=document;whiteSpace=wrap;html=1;boundedLbl=1;" vertex="1" parent="WIyWlLk6GJQsqaUBKTNV-1">
          <mxGeometry x="580" y="440" width="120" height="80" as="geometry" />
        </mxCell>
        <mxCell id="7LJGOjl4zrkCwYGaNUY1-75" value="&lt;font style=&quot;vertical-align: inherit&quot;&gt;&lt;font style=&quot;vertical-align: inherit&quot;&gt;Y&lt;/font&gt;&lt;/font&gt;" style="shape=document;whiteSpace=wrap;html=1;boundedLbl=1;" vertex="1" parent="WIyWlLk6GJQsqaUBKTNV-1">
          <mxGeometry x="250" y="440" width="120" height="80" as="geometry" />
        </mxCell>
        <mxCell id="7LJGOjl4zrkCwYGaNUY1-80" style="edgeStyle=orthogonalEdgeStyle;rounded=0;orthogonalLoop=1;jettySize=auto;html=1;entryX=0;entryY=0.25;entryDx=0;entryDy=0;" edge="1" parent="WIyWlLk6GJQsqaUBKTNV-1" source="7LJGOjl4zrkCwYGaNUY1-78" target="7LJGOjl4zrkCwYGaNUY1-51">
          <mxGeometry relative="1" as="geometry" />
        </mxCell>
        <mxCell id="7LJGOjl4zrkCwYGaNUY1-78" value="&lt;font style=&quot;vertical-align: inherit&quot;&gt;&lt;font style=&quot;vertical-align: inherit&quot;&gt;X=Y&lt;/font&gt;&lt;/font&gt;" style="rhombus;whiteSpace=wrap;html=1;" vertex="1" parent="WIyWlLk6GJQsqaUBKTNV-1">
          <mxGeometry x="420" y="210" width="80" height="80" as="geometry" />
        </mxCell>
        <mxCell id="7LJGOjl4zrkCwYGaNUY1-79" value="" style="edgeStyle=orthogonalEdgeStyle;rounded=0;orthogonalLoop=1;jettySize=auto;html=1;entryX=0.5;entryY=0;entryDx=0;entryDy=0;endArrow=none;" edge="1" parent="WIyWlLk6GJQsqaUBKTNV-1" source="7LJGOjl4zrkCwYGaNUY1-39" target="7LJGOjl4zrkCwYGaNUY1-78">
          <mxGeometry relative="1" as="geometry">
            <mxPoint x="460" y="190" as="sourcePoint" />
            <mxPoint x="460" y="330" as="targetPoint" />
          </mxGeometry>
        </mxCell>
        <mxCell id="7LJGOjl4zrkCwYGaNUY1-81" value="FIM" style="rounded=1;whiteSpace=wrap;html=1;" vertex="1" parent="WIyWlLk6GJQsqaUBKTNV-1">
          <mxGeometry x="690" y="310" width="120" height="60" as="geometry" />
        </mxCell>
      </root>
    </mxGraphModel>
  </diagram>
</mxfile>
